<?xml version="1.0" encoding="UTF-8" standalone="no"?>
<svg
   width="297mm"
   height="210mm"
   viewBox="0 0 1122.5197 793.70081"
   version="1.1"
   id="svg1"
   xml:space="preserve"
   xmlns="http://www.w3.org/2000/svg"
   xmlns:svg="http://www.w3.org/2000/svg"><defs
     id="defs1" /><g
     id="layer1"><path
       id="path1"
       style="fill:#000000"
       d="m 688.16213,142.53711 c -0.63329,0.0366 -1.28877,0.2324 -1.90821,0.61524 -2.58577,1.5981 -1.19874,6.24459 2.03125,6.80468 1.53155,0.26558 14.28574,11.92413 28.3418,25.90821 l 25.55664,25.42578 v 9.13281 9.13086 l 24.4375,24.40821 24.4375,24.4082 -0.28125,19.27734 -0.2832,19.27735 5.95312,6.06445 c 3.2733,3.33595 5.95118,7.01895 5.95118,8.1836 0,1.16465 0.75548,2.87264 1.67968,3.79687 2.1967,2.19671 3.21374,2.11955 5.30664,-0.40234 2.2013,-2.65231 0.84491,-6.31836 -2.33789,-6.31836 -1.3429,0 -5.14476,-2.65143 -8.44726,-5.89258 l -6.00391,-5.89453 v -19.71485 -19.71679 l -7.00195,-6.89649 -7.00195,-6.89648 v -32.61133 -32.61133 h 1.49804 c 0.8237,0 1.29698,-1.4097 1.05078,-3.13477 l -0.44726,-3.13672 -2.63281,-0.50195 c -1.4481,-0.2762 -3.15567,0.34002 -3.79297,1.3711 l -1.15821,1.875 2.04102,3.11523 2.04101,3.11523 v 30.48438 30.48438 l -15.91211,-15.86719 -15.9121,-15.86719 -0.83399,-9.94531 -0.83398,-9.94532 -25.96485,-25.99218 c -14.28058,-14.29544 -25.96484,-27.01932 -25.96484,-28.27735 0,-2.03782 -1.70758,-3.36561 -3.60742,-3.25586 z m 207.50391,12.24024 c -1.08831,-0.002 -2.27348,0.45903 -3.28321,1.46875 l -2.22265,2.22265 1.80273,2.16993 c 0.9908,1.19395 2.89758,2.17187 4.23828,2.17187 1.3407,0 5.3341,3.09731 8.875,6.88281 l 6.43946,6.88282 0.0215,42.40429 0.0215,42.40625 7.73632,7.81641 7.73438,7.81641 v 14.75195 14.75195 l -3.92774,3.76172 -3.92773,3.76368 h -7.19141 c -3.956,0 -7.58259,-0.63021 -8.05859,-1.4004 -1.3311,-2.15378 -6.29083,-1.66063 -7.20313,0.7168 -0.4471,1.1651 -0.0217,3.07155 0.94336,4.23438 l 1.75391,2.11328 3.25391,-2.13281 3.2539,-2.13086 h 7.48828 7.49024 l 3.76758,-3.9336 3.76953,-3.93554 0.52929,-15.52735 0.5293,-15.52734 -8.23828,-8.15235 -8.23633,-8.15039 v -42.80664 -42.80859 l -7.00195,-6.89649 c -3.8509,-3.79307 -7.00195,-8.04239 -7.00195,-9.44336 0,-2.19504 -1.54164,-3.48694 -3.35547,-3.49023 z m -54.36524,34.96094 c -1.08173,-0.0242 -2.37001,0.39533 -3.24219,1.11914 l -2.11523,1.75586 2.13281,3.2539 2.13086,3.25391 v 13.75 13.75 l -7.70117,7.60742 -7.70117,7.60547 v -7.92188 c 0,-4.35686 0.63019,-8.31109 1.40039,-8.7871 2.26573,-1.4003 1.60376,-5.92333 -1.01367,-6.92774 l -2.41407,-0.92578 -1.77539,2.42969 -1.77734,2.42773 2.08984,2.3086 2.08985,2.30859 v 8.35937 8.35743 l -5.60157,5.46875 -5.60156,5.4707 v 14.4375 14.43945 l -1.62109,2.59571 c -0.8918,1.42792 -1.22664,3.62549 -0.74414,4.88281 0.4824,1.25731 1.86085,2.28516 3.06445,2.28516 2.9946,0 4.29417,-4.01034 2.32227,-7.16797 l -1.6211,-2.59571 v -13.69922 -13.69921 l 14.00391,-13.95118 14.00195,-13.95117 v -14.99609 -14.99805 l 1.40039,-0.86523 c 2.1537,-1.33111 1.66061,-6.29082 -0.71679,-7.20313 -0.29128,-0.11177 -0.62966,-0.16967 -0.99024,-0.17773 z m 87.12891,7.48046 -2.39063,2.39063 -2.39062,2.39062 1.69141,1.69141 1.68945,1.68945 v 9.19922 9.19727 l 14.00391,13.95117 14.0039,13.95117 v 34.39454 34.39257 l 6.30078,6.18555 6.30274,6.1836 v 36.53711 36.53906 l -1.58594,1.58594 c -0.8725,0.87246 -1.20724,2.57418 -0.74414,3.78125 0.4632,1.20706 2.14177,2.19336 3.73047,2.19336 3.4038,0 5.25573,-3.70515 2.98633,-5.97461 l -1.58594,-1.58594 v -36.53906 -36.53711 l -6.30274,-6.1836 -6.30078,-6.18555 v -34.39257 -34.39454 l -14.0039,-13.95117 -14.00391,-13.95117 v -8.16992 c 0,-4.49371 0.69181,-9.46336 1.53711,-11.04297 l 1.53711,-2.8711 -2.23633,-2.23828 z m -369.7422,20.67969 c -0.64659,0.0376 -1.25176,0.26544 -1.71679,0.73047 -2.12487,2.12487 -0.522,6.46631 2.55078,6.9082 1.57129,0.22596 14.46089,12.04066 28.64453,26.25586 l 25.78906,25.84571 h 26.63477 26.63281 l 17.17578,17.13476 17.17383,17.13282 v 11.80664 11.80859 l 18.48828,18.67188 18.48829,18.66992 h 17.13867 17.13867 l 0.86523,1.40039 c 1.3551,2.19263 6.29653,1.64049 7.23633,-0.80859 0.4662,-1.21501 -0.16379,-3.22039 -1.40039,-4.45703 l -2.24804,-2.25 -2.58399,2.33984 -2.58398,2.33789 -16.35938,-0.34766 -16.35742,-0.3457 -17.51172,-17.46875 -17.50977,-17.4668 V 323.89063 311.98634 L 685.83791,293.41212 667.30275,274.8379 h -26.61328 -26.61133 l -25.57031,-25.54102 c -14.06367,-14.04826 -25.57032,-26.58418 -25.57032,-27.85742 0,-2.05193 -2.31022,-3.65371 -4.25,-3.54102 z m 149.18751,3.02735 v 3.5 3.5 l 2.88086,0.41406 c 1.58524,0.22676 11.35227,8.89965 21.70507,19.27344 l 18.82422,18.86133 0.1836,13.43164 0.18359,13.43164 -9.32031,-9.25 -9.32227,-9.25 h -13.52929 -13.53125 l -24.94336,-25.10938 -24.94532,-25.10937 -12.45703,-0.0957 -12.45898,-0.0957 -1.87696,-1.55859 c -2.62758,-2.1807 -6.11523,-0.49408 -6.11523,2.95703 0,3.40376 3.70709,5.25579 5.97656,2.98633 l 1.58594,-1.58594 h 12.74609 12.74805 l 24.00195,24.50586 24.00196,24.50586 10.23242,0.15625 c 5.62792,0.0853 11.74453,0.0265 13.5918,-0.12891 l 3.35937,-0.28125 24.29688,24.26758 c 13.36405,13.34771 24.29883,25.27422 24.29883,26.50195 0,1.22773 0.42009,2.65255 0.93359,3.16602 1.5621,1.56211 4.22896,1.04827 6.06836,-1.16797 l 1.74414,-2.09961 -1.79688,-2.16406 c -0.9879,-1.19035 -2.54875,-1.87648 -3.46875,-1.52344 -0.92,0.35303 -8.06701,-5.77274 -15.88086,-13.61328 L 753.38478,295.09571 V 280.39649 265.69923 L 733.84377,246.19337 C 723.09519,235.46536 714.1154,225.39145 713.88869,223.80665 l -0.41406,-2.88086 h -2.79883 z m 308.15038,18.75195 -1.7754,2.42773 -1.7754,2.42969 2.0879,2.3086 2.0899,2.30859 v 21.28711 21.28711 l -12.6035,12.74805 -12.60356,12.74804 v 49.84571 49.84766 l 11.52346,11.58203 11.5215,11.58203 h 9.1132 9.1133 l 17.1738,17.13281 c 9.446,9.42333 17.1739,18.142 17.1739,19.37305 0,1.231 0.4201,2.65837 0.9336,3.17187 1.5621,1.5621 4.229,1.04834 6.0683,-1.16796 l 1.7442,-2.09961 -1.7442,-2.10157 c -0.9588,-1.15529 -2.7779,-2.09961 -4.0429,-2.09961 -1.2651,0 -10.1594,-7.87842 -19.7637,-17.50586 l -17.4609,-17.5039 h -9.0938 -9.0918 l -10.8828,-10.82032 -10.88477,-10.81836 0.0312,-16.83789 0.0293,-16.83789 16.63673,16.87891 16.6367,16.87891 19.3926,-0.16016 19.3926,-0.1582 5.7968,5.68554 c 3.1883,3.12771 6.03,6.94111 6.3165,8.47266 0.6048,3.23381 5.2487,4.61205 6.8437,2.03125 1.5475,-2.50395 0.068,-5.51758 -2.7109,-5.51758 -1.2976,0 -5.1435,-2.8349 -8.545,-6.30078 l -6.1836,-6.30273 h -20.1953 -20.1933 l -16.5821,-17.1543 -16.58199,-17.1543 -0.041,-30.13672 -0.043,-30.13672 12.60347,-12.54492 12.6036,-12.54492 v -22.70117 -22.70313 l 1.4003,-0.86523 c 2.2657,-1.40031 1.6039,-5.92333 -1.0136,-6.92774 z m -161.71483,23.77539 -0.84766,3.37695 c -0.466,1.85692 -5.21513,7.70913 -10.55273,13.00586 l -9.70508,9.63086 v 14.06836 14.06641 l 14.0039,13.95117 c 7.702,7.67306 14.00391,14.96139 14.00391,16.19532 0,1.23393 0.42009,2.66232 0.93359,3.17578 1.4882,1.48821 4.19841,1.08623 5.81641,-0.86328 l 1.49219,-1.79688 -1.11133,-1.79687 c -0.6107,-0.98812 -2.17827,-1.95286 -3.48437,-2.14454 -1.306,-0.19168 -8.33169,-6.2819 -15.61329,-13.5332 L 836.00588,317.60548 V 303.53516 289.4668 l 9.45312,-9.29101 c 5.1988,-5.11014 10.71351,-9.51208 12.25391,-9.78321 l 2.80078,-0.49414 v -2.78125 -2.78125 l -3.10156,-0.4414 z m 22.75,20.09961 c -0.37824,-0.0128 -0.73141,0.0358 -1.03516,0.15234 -2.4491,0.9398 -3.00119,5.88318 -0.80859,7.23829 l 1.40039,0.86523 v 12.88672 12.88867 l 21.00586,20.97071 21.0039,20.9707 v 13.31055 13.30859 l 33.24805,33.26953 33.24805,33.26953 h 14.67969 14.67964 l 9.4864,9.41407 c 5.2181,5.17816 9.4883,10.40858 9.4883,11.62304 0,1.21446 0.7554,2.96448 1.6796,3.88868 1.9803,1.9803 2.5964,2.0339 5.1094,0.4414 2.6827,-1.7001 1.4064,-6.33837 -1.9043,-6.91992 -1.5316,-0.26904 -7.369,-5.0013 -12.9726,-10.51758 l -10.1875,-10.0293 h -14.6563 -14.65624 l -32.2207,-32.19726 -32.21875,-32.19727 v -13.35547 -13.35742 l -21.58594,-21.66406 -21.58398,-21.66407 -0.0117,-11.90234 -0.0117,-11.90234 2.24609,-2.49414 2.24805,-2.49414 -2.24805,-2.25 c -0.92745,-0.92748 -2.28717,-1.51419 -3.42187,-1.55274 z m 169.69923,8.79102 v 3.48047 3.48242 l 2.8008,0.49609 c 1.5404,0.27268 6.1087,3.72425 10.1523,7.67188 l 7.3516,7.17773 v 16.52149 16.52148 l -1.6211,2.5957 c -0.8918,1.42791 -1.2266,3.6255 -0.7442,4.88282 1.1011,2.8694 4.275,2.94509 6.5879,0.1582 l 1.7657,-2.12695 -2.293,-2.53321 -2.2949,-2.53515 v -17.44141 -17.44336 l -7.6348,-7.54102 c -4.1995,-4.1474 -7.8237,-8.85036 -8.0527,-10.45312 l -0.416,-2.91406 h -2.8008 z m -306.77931,22.43359 c -0.63391,0.036 -1.29131,0.23426 -1.91407,0.61914 -2.58542,1.59788 -1.19901,6.24338 2.03125,6.80664 1.53155,0.26705 9.84359,7.4803 18.47071,16.0293 l 15.68554,15.54492 17.66407,0.19727 17.66406,0.19922 21.61328,21.58008 21.61524,21.58203 v 23.84961 23.84765 l -14.00391,13.95118 -14.00195,13.95117 v 8.17187 c 0,4.4937 -0.69171,9.46132 -1.53711,11.04102 l -1.53711,2.87305 2.23633,2.23632 2.23828,2.23829 2.23633,-2.23829 2.23632,-2.23632 -1.53711,-2.87305 c -0.8454,-1.5797 -1.53515,-6.54732 -1.53515,-11.04102 v -8.17187 l 14.00195,-13.95117 14.00391,-13.95118 v -22.39843 -22.39844 l 11.20312,11.13672 11.20313,11.13672 v 16.19531 16.19531 l -6.30274,6.18555 -6.30078,6.18359 v 24.83203 24.83399 l -1.40039,0.86523 c -1.9864,1.2276 -1.73939,5.94904 0.34961,6.67774 4.2498,1.4824 7.61496,-4.35184 3.85156,-6.67774 l -1.40039,-0.86523 v -24.12695 -24.12696 l 7.00196,-6.89648 7.00195,-6.89649 V 438.72267 422.5547 L 845.44924,387.20704 810.0801,351.85743 h -17.47266 -17.47266 l -15.77539,-15.73047 c -8.67674,-8.65213 -15.77539,-16.77669 -15.77539,-18.05469 0,-2.06101 -1.70181,-3.40285 -3.60351,-3.29492 z m 282.27341,7.07227 -2.4238,2.42383 -2.4219,2.42382 1.7227,2.75782 1.7226,2.75976 v 18.54297 18.54297 l 10.8204,10.88281 10.8203,10.88477 h 14.3027 14.3047 l 0.8652,1.40039 c 1.8765,3.03626 6.7873,0.0689 6.0742,-3.66992 l -0.5019,-2.63282 -3.1367,-0.44726 c -1.7251,-0.24612 -3.1367,0.22702 -3.1367,1.05078 v 1.49805 h -14.3184 -14.3184 l -9.4863,-9.41602 -9.4883,-9.41406 v -18.61133 -18.61133 l 1.7227,-2.75976 1.7226,-2.75782 -2.4218,-2.42382 z m -388.59764,6.20312 c -2.99461,0 -4.29423,4.01034 -2.32226,7.16797 l 1.62109,2.5957 v 31.45704 31.45703 l -6.30078,5.26758 -6.30273,5.26757 v 34.97657 34.97461 l -14.00391,13.95508 -14.00195,13.95508 v 8.80468 c 0,4.843 -0.63019,9.19588 -1.40039,9.67188 -1.98311,1.2256 -1.74042,5.93014 0.34961,6.77344 2.86369,1.1555 3.42493,1.02808 5.27343,-1.19922 l 1.76368,-2.12696 -2.29297,-2.53515 -2.29297,-2.53321 v -7.90234 -7.90234 l 13.99023,-14.39258 13.99219,-14.39453 0.0117,-33.9043 0.0117,-33.9043 6.30273,-6.48437 6.30078,-6.48438 v -31.39844 -31.39844 l 1.6211,-2.5957 c 1.97197,-3.15763 0.67429,-7.16797 -2.32032,-7.16797 z m 284.41212,0.36914 c -1.08854,-5e-5 -2.27257,0.462 -3.2793,1.46875 l -2.22265,2.22266 1.80273,2.16992 c 0.9909,1.19395 2.81328,2.17188 4.05078,2.17188 1.2374,0 7.46184,5.18437 13.83204,11.52148 l 11.58203,11.52149 v 11.30468 11.30274 l -1.58594,1.58594 c -0.8724,0.87246 -1.20734,2.57418 -0.74414,3.78125 0.4632,1.20706 2.14177,2.19531 3.73047,2.19531 3.4037,0 5.25583,-3.7071 2.98633,-5.97656 l -1.58594,-1.58594 v -11.30274 -11.30078 l -12.60352,-12.54492 c -6.9317,-6.89964 -12.60351,-13.68029 -12.60351,-15.06836 0,-2.18268 -1.54515,-3.46671 -3.35938,-3.4668 z m -102.36719,3.13086 v 2.78125 2.78125 l 2.80078,0.49024 c 1.5403,0.26893 9.41882,7.04213 17.50782,15.05273 l 14.70703,14.56445 14.9082,0.20118 14.9082,0.19922 13.02344,13.07812 c 7.163,7.19291 12.5899,13.51361 12.0586,14.04492 -0.5313,0.53132 -0.24263,1.83766 0.64257,2.9043 0.8852,1.06665 2.61375,1.7459 3.83985,1.50977 l 2.22851,-0.42774 v -3.48242 -3.48242 l -2.89257,-0.41407 c -1.5913,-0.22756 -8.51021,-6.05637 -15.37501,-12.95312 L 881.57619,365.86134 H 866.81838 852.06057 L 837.3965,351.14845 c -8.0652,-8.09274 -14.66773,-15.8141 -14.67773,-17.15625 l -0.0156,-2.43946 h -3.5 z m 286.37301,11.73828 -1.4003,0.86524 -1.4004,0.86523 v 18.54297 18.54102 l -1.586,1.58594 c -0.8725,0.87246 -1.2073,2.57418 -0.7441,3.78125 0.4632,1.20706 1.8069,2.19531 2.9863,2.19531 h 2.1445 v -23.18946 z m -376.41403,45.00196 c -1.71341,0.0437 -3.51,0.85793 -4.05468,2.27734 l -0.88282,2.30274 2.58008,1.88671 2.58008,1.88672 2.36133,-2.13672 2.36328,-2.13671 37.64453,0.13867 37.64649,0.13867 9.45312,9.32422 9.45313,9.32422 v 14.41015 14.41016 l -1.66797,2.66797 -1.66602,2.66797 1.83789,2.21289 c 1.0107,1.21783 2.31489,2.21484 2.89649,2.21484 0.58163,0 1.88383,-0.99701 2.89453,-2.21484 l 1.83789,-2.21289 -1.66602,-2.66797 -1.66601,-2.66797 v -14.33984 -14.33985 l -10.11914,-10.18554 -10.11719,-10.18555 h -38.8125 -38.8125 l -0.86524,-1.40039 c -0.60351,-0.97651 -1.88609,-1.40897 -3.21875,-1.375 z m -39.17578,0.13867 c -1.3054,-0.0527 -2.68265,0.53336 -3.24023,1.43555 l -1.15821,1.87304 2.04102,3.11524 2.04101,3.11523 v 21.19141 21.19141 l -9.33203,9.66601 -9.33203,9.66602 h -15.0918 -15.08984 l -0.86719,-1.40039 c -2.44005,-3.94809 -7.5366,0.36165 -5.79492,4.90039 0.91335,2.38016 4.48958,2.81326 5.79492,0.70117 l 0.86719,-1.40039 h 14.9375 14.9375 l 10.18555,-10.11719 10.18555,-10.11914 v -23.49023 -23.49024 h 1.49804 c 0.82377,0 1.2969,-1.41165 1.05078,-3.13672 l -0.44726,-3.13672 -2.63281,-0.50195 c -0.18102,-0.0345 -0.36625,-0.055 -0.55274,-0.0625 z m 192.23243,6.13672 v 2.80078 2.80078 l 2.88281,0.41211 c 1.5857,0.22682 11.03023,8.57643 20.98633,18.55469 l 18.10156,18.14258 h 14.72852 14.72851 l 20.79493,20.84961 20.79297,20.84961 12.93945,0.9707 12.9395,0.9707 23.6621,23.69141 23.6601,23.69141 h 9.3242 9.3262 l 8.7891,8.39062 c 4.8346,4.6147 9.0718,8.10978 9.414,7.76758 0.3422,-0.3422 -3.1309,-4.43224 -7.7168,-9.08984 l -8.3379,-8.46875 h -9.5273 -9.5293 l -24.6621,-24.4961 -24.6602,-24.49609 -11.914,-0.01 -11.91409,-0.01 -33.83203,-33.95899 c -18.6078,-18.67724 -34.0485,-35.21938 -34.3125,-36.75977 l -0.48047,-2.80078 -3.14258,-0.44726 -3.14257,-0.44922 -0.85157,2.2168 c -1.0249,2.67103 2.04163,6.76663 4.39063,5.86523 0.9223,-0.3539 6.94978,4.66022 13.39648,11.14063 l 11.72266,11.78125 h -13.29297 -13.29492 l -17.01367,-17.1543 c -9.3579,-9.43489 -17.23346,-18.41469 -17.50196,-19.95508 l -0.48828,-2.80078 h -3.48242 z m -145.56251,21.55273 -1.74218,2.38477 c -0.95839,1.31067 -1.48201,2.80393 -1.16407,3.31836 0.31793,0.51443 -11.04583,12.54578 -25.25195,26.73633 l -25.83008,25.80078 v 27.39062 27.38868 l -17.97461,17.78515 -17.97461,17.78711 h -11.79297 -11.79101 l -37.79102,37.8086 -37.78906,37.81055 h -16.15039 -16.14844 l -9.99414,-10.1543 c -5.49701,-5.5839 -10.21559,-11.41273 -10.48633,-12.95313 l -0.49219,-2.80078 h -3.48242 -3.48242 v 2.79102 2.78906 l 4.90234,2.34961 c 2.69568,1.2927 8.97887,6.49695 13.96289,11.56445 l 9.0625,9.21485 h 16.1543 16.15234 l 38.49219,-38.50977 38.49024,-38.51172 h 11.89258 11.89257 l 17.875,-17.83398 17.87305,-17.83399 v -27.3418 -27.33984 l 25.55664,-25.42578 c 14.05606,-13.98408 26.81704,-25.64166 28.35743,-25.90625 l 2.80078,-0.48242 0.42383,-2.95704 0.42382,-2.95898 -2.48632,-0.95508 z m -405.61719,10.89649 -2.22071,2.22265 c -2.67948,2.67947 -1.49885,6.63868 1.98047,6.63868 h 2.50977 l 26.57812,26.60742 26.58008,26.60742 h 22.40235 22.40234 l 20.67188,20.63672 20.67187,20.63867 v 18.81055 18.8125 l -2.29297,2.53516 -2.29492,2.53515 1.76563,2.125 c 3.91617,4.7187 9.12999,0.22109 5.84375,-5.04101 l -1.6211,-2.59571 v -19.25781 -19.25781 l -21.33789,-21.3711 -21.33789,-21.37109 h -22.41016 -22.4082 l -25.57031,-25.54297 c -14.06367,-14.04826 -25.57032,-26.5746 -25.57032,-27.83594 0,-1.26134 -0.97792,-3.10481 -2.17187,-4.0957 z m 42.13867,1.66406 -0.84961,2.2168 c -1.02471,2.67035 2.03865,6.76627 4.38672,5.86523 0.9216,-0.35365 7.26616,4.97459 14.09961,11.83985 l 12.42578,12.48242 10.53125,0.0449 10.53125,0.043 2.58789,1.96094 c 3.23028,2.44739 6.51563,1.31706 6.51563,-2.24219 0,-3.24485 -3.76525,-5.00429 -5.97657,-2.79297 l -1.58593,1.58594 h -10.60157 -10.60156 l -12.10351,-12.25391 c -6.65644,-6.73921 -12.32078,-13.51234 -12.5879,-15.05273 l -0.48632,-2.80078 -3.14258,-0.44922 z m 682.22851,1.93359 c -0.3557,0.0119 -0.7003,0.0752 -1.0234,0.19922 l -2.2168,0.85157 0.4492,3.15625 0.4473,3.1582 2.9023,0.41406 c 1.5965,0.22823 7.2517,4.79667 12.5664,10.15235 l 9.6621,9.73828 h 6.3868 6.3886 l 7.5703,-7.66797 c 4.1647,-4.21702 7.2575,-7.98274 6.8711,-8.36914 -0.3864,-0.3864 -3.7927,2.43436 -7.5683,6.26758 l -6.8633,6.96875 h -6.459 -6.459 l -8.998,-9.32813 c -4.9491,-5.13048 -8.8317,-10.08728 -8.6289,-11.01562 0.4692,-2.14924 -2.5371,-4.60878 -5.0274,-4.5254 z m -309.16405,18.23633 c -1.81412,8.9e-4 -3.35742,1.28689 -3.35742,3.47266 0,1.39129 -4.72745,7.22498 -10.50391,12.96289 l -10.50195,10.43164 v 19.67578 19.67578 l -10.15234,9.99415 c -5.58391,5.497 -11.40596,10.21342 -12.9375,10.48242 -3.3107,0.5816 -4.58705,5.21982 -1.9043,6.91992 1.03852,0.6582 2.28424,1.20675 2.76758,1.21875 1.58543,0.0387 4.44318,-4.22475 3.47851,-5.18945 -0.51835,-0.5183 3.76825,-5.70244 9.52539,-11.51954 l 10.4668,-10.57617 0.23633,-19.60547 0.23633,-19.60547 10.54297,-10.73242 c 5.79835,-5.90305 11.29771,-10.44403 12.2207,-10.08984 0.92299,0.35418 2.51127,-0.36085 3.53125,-1.58985 l 1.85547,-2.23437 -2.22266,-2.22266 c -1.00749,-1.00749 -2.19277,-1.46928 -3.28125,-1.46875 z m -287.63086,1.83203 -2.39063,2.39063 -2.39062,2.39062 1.6914,1.68946 1.68946,1.6914 v 9.91016 9.91016 l 28.70703,28.70703 28.70898,28.70703 v 11.48438 11.48437 l 7.73242,7.73242 7.73243,7.73828 h 13.29492 13.29687 l 6.03907,-6.30078 c 3.32089,-3.4659 7.01402,-6.30273 8.20703,-6.30273 1.19301,0 2.86534,-0.83924 3.71679,-1.86524 l 1.54688,-1.86523 -1.76367,-2.41211 -1.76172,-2.41211 -2.41406,0.92774 c -1.32752,0.5094 -2.41407,2.17371 -2.41407,3.69921 v 2.77344 l -6.65234,6.09766 -6.65039,6.09961 -11.20313,-0.01 -11.20312,-0.01 -8.05274,-7.92188 -8.05078,-7.91992 v -10.75 -10.75 l -27.94726,-28.50391 -27.94727,-28.5039 -0.0606,-9.87305 -0.0605,-9.8711 1.6914,-1.6914 1.68946,-1.68946 -2.39063,-2.39062 z m 454.34571,0.59961 -10.35352,10.42383 c -5.6948,5.73307 -10.72047,10.38374 -11.16797,10.33594 -0.4474,-0.0478 -1.6458,-0.0111 -2.6621,0.0801 l -1.84766,0.16601 0.44726,3.15039 0.44727,3.1504 3.15039,0.44726 3.15234,0.44727 v -3.21485 -3.21484 l 10.11719,-10.18555 10.11719,-10.18555 h 13.79102 13.79297 l 18.10156,17.93946 c 9.9558,9.86621 18.10156,18.87584 18.10156,20.02344 0,1.1476 0.75539,2.84327 1.67969,3.76757 2.1998,2.1999 3.21436,2.11998 5.32226,-0.41992 l 1.74219,-2.10156 -1.74219,-2.09961 c -0.9588,-1.1553 -2.73225,-2.09961 -3.93945,-2.09961 -1.2072,0 -10.28999,-8.1925 -20.18359,-18.20508 l -17.98828,-18.20508 h -15.03907 z m -353.51954,2.60547 -3.15039,0.44727 -3.15039,0.44726 -0.44727,3.15235 -0.44922,3.15039 h 2.54883 c 1.40141,3e-4 6.17099,3.34619 10.59961,7.43555 l 8.05274,7.43554 v 17.6875 17.68946 l -1.40039,0.86523 c -1.98311,1.2256 -1.74042,5.93004 0.34961,6.77344 2.83121,1.1424 3.42432,1.02828 5.08984,-0.97852 l 1.58203,-1.90429 -2.22852,-5.33594 -2.22851,-5.33399 0.9043,-14.11523 0.90625,-14.11524 -8.48829,-9.0039 c -4.6691,-4.95268 -8.49023,-10.19539 -8.49023,-11.65039 z m -30.10742,7.19727 c -2.99461,0 -4.29424,4.01035 -2.32227,7.16797 l 1.6211,2.5957 0.002,26.27539 v 26.27735 l 6.98437,6.01367 6.98633,6.01562 h 13.20117 13.19922 l 1.69141,2.03711 c 1.94264,2.3407 1.81269,2.3086 4.73437,1.1875 1.21828,-0.4675 2.21485,-1.97596 2.21485,-3.35156 0,-2.9899 -4.07498,-4.88796 -6.11524,-2.84766 l -1.44726,1.44727 h -14.30469 -14.30469 l -5.7207,-6.49805 -5.7207,-6.5 v -25.02734 -25.0293 l 1.62304,-2.5957 c 1.97197,-3.15762 0.67235,-7.16797 -2.32226,-7.16797 z m 107.00391,26.73828 c -1.08369,-0.0438 -2.12076,0.36697 -2.73047,1.35352 -1.52344,2.465 -0.0821,5.51562 2.60547,5.51562 1.23898,0 5.26824,2.97021 8.95312,6.59961 l 6.69922,6.59961 v 11.68945 11.68946 l -7.20508,7.61718 -7.20508,7.61915 H 622.584 611.21876 l -24.47461,24.50586 -24.47656,24.50586 h -9.38476 c -5.16162,0 -9.77399,-0.6302 -10.25,-1.4004 -1.13956,-1.8439 -5.88992,-1.79929 -7.04297,0.0664 -0.4988,0.8071 -0.55614,2.38355 -0.12696,3.50195 0.88663,2.3106 5.86173,2.74952 7.16993,0.63282 0.47601,-0.7702 5.40421,-1.40039 10.95117,-1.40039 h 10.08398 l 23.77539,-23.80665 23.77539,-23.80468 h 11.17774 11.17773 l 8.0918,-8.00782 8.09375,-8.00976 V 519.7715 506.25001 l -6.24023,-6.04687 c -3.43172,-3.3257 -6.42368,-7.33707 -6.65039,-8.91407 -0.29518,-2.05325 -2.23098,-3.39182 -4.03711,-3.46484 z m 373.45895,0.23828 c -1.0885,-1.6e-4 -2.2743,0.46184 -3.2812,1.46875 l -2.2207,2.22266 1.8008,2.16992 c 0.9909,1.1939 2.9059,2.16992 4.2539,2.16992 1.348,0 5.0516,2.82279 8.2304,6.27149 l 5.7793,6.26953 v 21.16992 21.16992 l -26.18941,26.51563 c -14.4039,14.5832 -26.9606,26.21757 -27.9043,25.85547 -2.3756,-0.9116 -5.2173,2.86469 -4.1836,5.55859 l 0.84961,2.21485 3.15821,-0.44727 3.15625,-0.44922 0.41211,-2.875 c 0.2263,-1.582 12.04106,-14.49416 26.25586,-28.69336 l 25.84567,-25.81641 v -22.52734 -22.52734 l -6.3008,-6.86524 c -3.4659,-3.775 -6.3027,-7.99987 -6.3027,-9.38867 0,-2.18338 -1.5452,-3.46652 -3.3594,-3.4668 z m 48.2442,0.1875 c -1.8613,-0.1218 -2.8731,1.15923 -2.8731,3.76953 0,3.2999 3.7428,5.09303 5.9746,2.86133 0.8724,-0.8725 5.0962,-1.58789 9.3868,-1.58789 h 7.8027 l 12.5449,12.60352 c 6.8996,6.9317 13.1755,12.60351 13.9473,12.60351 0.7718,0 -4.8585,-6.2848 -12.5117,-13.9668 l -13.9141,-13.96679 -7.0644,0.22851 c -3.8853,0.1257 -8.4953,-0.55055 -10.2442,-1.50195 -1.1811,-0.64259 -2.2028,-0.9876 -3.0488,-1.04297 z m -254.50198,2.73828 c -0.8494,-0.0536 -1.69301,0.20278 -2.34961,0.85938 l -1.44726,1.44531 h -17.61719 -17.61914 l -8.24805,8.33594 c -4.53694,4.5848 -8.67882,8.07215 -9.20312,7.74805 -0.5243,-0.324 -2.09439,0.24437 -3.48829,1.26367 l -2.5332,1.85351 0.91992,2.40039 0.92188,2.40235 3.14258,-0.44922 3.14257,-0.44727 0.49219,-2.80078 c 0.26999,-1.5404 3.72033,-6.10874 7.66797,-10.15234 l 7.17774,-7.35352 h 17.62109 17.62305 l 1.58593,1.58789 c 2.2113,2.2113 5.97657,0.45183 5.97657,-2.79297 0,-2.16267 -1.89695,-3.78236 -3.76563,-3.90039 z m 119.41211,2.30469 -5.31054,5.18555 -5.31055,5.18554 v 8.11915 8.11718 h -1.49609 c -2.4976,0 -0.78404,6.23794 1.85156,6.74024 l 2.45508,0.46875 0.91601,-2.38867 c 0.5043,-1.3143 0.18858,-3.55843 -0.70312,-4.98633 -0.8918,-1.4279 -1.62305,-5.2529 -1.62305,-8.5 v -5.9043 l 4.47656,-4.61719 4.47657,-4.61914 h 5.04101 5.04297 l 5.4707,5.60156 5.46875,5.60157 h 25.91407 25.91211 l 5.31054,5.18554 5.31059,5.18555 v 9.53711 c 0,5.2455 -0.7497,10.73768 -1.6661,12.20508 l -1.66597,2.66797 1.81247,2.18554 1.8145,2.18555 2.6543,-1.41992 c 3.1809,-1.7024 3.1435,-1.2076 0.5527,-7.4082 -1.1553,-2.765 -2.1177,-8.6716 -2.1387,-13.125 l -0.039,-8.09571 -5.00783,-5.38867 -5.00782,-5.38867 -25.875,0.0859 -25.87695,0.0859 -6.68359,-6.25 -6.68164,-6.25195 h -4.69727 z m -32.12304,2.69922 -1.90235,1.90234 -1.90429,1.9043 0.90234,2.34961 c 0.4958,1.292 1.30558,2.35056 1.80078,2.35156 0.4953,0.001 0.90039,8.17632 0.90039,18.16602 v 18.16211 l -10.15234,10.22461 -10.15235,10.22461 v 21.24023 21.23828 l -1.40039,0.86719 c -0.7701,0.476 -1.40039,2.08713 -1.40039,3.58203 v 2.71875 h 3.50196 3.5 v -2.71875 c 0,-1.4949 -0.6302,-3.10603 -1.4004,-3.58203 l -1.40039,-0.86719 v -20.60742 -20.60742 l 10.50196,-10.43164 10.5039,-10.4336 v -18.50586 -18.50781 l 1.40039,-0.86523 c 2.2402,-1.3845 1.61659,-5.9197 -0.94921,-6.9043 z m -553.24025,7.48828 c -1.09114,0.0211 -2.26877,0.48165 -3.24219,1.45508 l -2.2207,2.2207 1.80078,2.17188 c 0.99089,1.1939 2.90893,2.16992 4.26172,2.16992 1.35279,0 6.63091,4.42428 11.73047,9.83008 l 9.27344,9.82812 v 19.96289 19.96485 l 10.50195,10.43164 c 5.77646,5.738 10.50195,11.44675 10.50195,12.68555 0,1.2387 0.42014,2.67214 0.9336,3.18554 1.7514,1.7514 5.76643,0.93945 6.64257,-1.34375 1.04497,-2.7232 -1.7298,-6.51762 -4.10156,-5.60742 -0.92383,0.3545 -6.18026,-3.88547 -11.67969,-9.42187 l -9.99804,-10.06641 V 551.35939 531.7715 l -10.50391,-11.41407 c -5.77646,-6.2776 -10.50195,-12.43464 -10.50195,-13.68164 0,-2.04775 -1.57988,-3.23042 -3.39844,-3.19531 z m 91.6211,15.01953 c -3.40376,0 -5.2558,3.70511 -2.98633,5.97461 l 1.58593,1.58789 v 16.19336 16.19336 l 18.9043,18.86524 18.9043,18.86523 v 11.22266 l 0.002,11.22265 21.35352,21.32032 c 11.74531,11.7258 21.73574,21.66308 22.20117,22.08398 0.46544,0.4209 4.87681,0.82163 9.80274,0.89063 l 8.95703,0.12695 24.50586,24.3418 24.50586,24.33984 12.60547,0.0117 12.60546,0.01 24.50391,24.99609 h 0.002 c 13.47722,13.7482 25.40879,25.08978 26.51563,25.20508 l 2.01367,0.21094 -3.89844,-4.06836 -3.89648,-4.06836 12.66406,-0.13477 12.66407,-0.13672 4.20898,4.50391 c 2.31465,2.4766 4.6971,4.01382 5.29492,3.41602 0.59782,-0.5979 -1.03362,-2.93868 -3.625,-5.20118 l -4.71094,-4.11328 H 656.12306 641.85939 L 620.30861,730.65431 598.75587,708.94728 H 586.084 573.41017 l -23.77539,-23.80469 -23.77539,-23.80664 h -9.60547 -9.60352 l -20.86133,-21.35547 -20.86132,-21.35547 -0.008,-11.22265 -0.008,-11.22266 -18.9043,-18.86523 -18.90429,-18.86524 v -16.19336 -16.19336 l 1.58593,-1.58789 c 2.26947,-2.2695 0.41744,-5.97461 -2.98632,-5.97461 z m -56.71485,0.70117 v 2.78125 2.78125 l 2.80078,0.48438 c 1.54039,0.2671 15.56175,13.18934 31.15821,28.71484 l 28.35742,28.22852 v 16.10742 16.10938 l 41.65039,41.66797 41.65234,41.66992 h 8.67774 c 4.77308,0 9.06891,0.63019 9.54492,1.40039 0.476,0.7702 2.08905,1.40039 3.58399,1.40039 h 2.71679 v -3.35156 c 0,-4.0085 -3.3266,-5.69079 -5.66992,-2.86719 l -1.67383,2.01758 h -7.87305 -7.87109 l -40.96875,-40.95117 -40.96875,-40.95118 v -16.12695 -16.125 l -28.64649,-28.62109 c -15.75533,-15.7413 -28.83237,-29.915 -29.05859,-31.4961 l -0.41016,-2.87305 h -3.50195 z m 539.13673,15.40235 v 2.80078 2.80078 l 2.88281,0.41211 c 1.5853,0.2267 11.34345,8.89246 21.68555,19.25586 l 18.80469,18.8418 h 9.1582 9.16016 l 9.72656,-9.80274 c 5.35,-5.3913 10.77072,-9.80078 12.04492,-9.80078 1.2742,0 3.12629,-0.97787 4.11719,-2.17187 l 1.80274,-2.16993 -2.08204,-2.08203 -2.08203,-2.08203 -2.34961,0.90235 c -1.292,0.4958 -2.34961,1.91991 -2.34961,3.16601 0,1.2461 -4.23596,6.53571 -9.41406,11.75391 l -9.41406,9.48633 h -9.16016 -9.16015 l -17.7168,-17.85352 c -9.7436,-9.82 -17.93473,-19.11595 -18.20313,-20.65625 l -0.48828,-2.80078 h -3.48047 z m -418.00587,0.70117 c -3.40375,0 -5.25579,3.70521 -2.98633,5.97461 l 1.58594,1.58789 v 26.64258 26.64453 l 10.11719,10.18555 10.11719,10.18555 h 15.00586 15.00781 l 0.86523,1.40039 c 1.4003,2.2657 5.92333,1.60372 6.92774,-1.01368 l 0.92578,-2.41406 -2.42773,-1.77539 -2.42969,-1.77734 -2.3086,2.08984 -2.30859,2.08984 h -13.67969 -13.67969 l -9.66601,-9.33203 -9.66602,-9.33203 V 569.66408 542.8672 l 1.58594,-1.58789 c 2.26946,-2.2694 0.41743,-5.97461 -2.98633,-5.97461 z m 315.17384,0.24023 c -1.00493,0.0255 -2.0738,0.32321 -3.06055,0.93946 l -2.59766,1.62109 H 771.3008 742.96486 l -8.06445,7.97852 -8.06446,7.98047 -22.08398,0.50781 -22.08399,0.50586 -11.55273,11.4375 -11.55273,11.4375 v 15.78516 15.78515 h -1.4004 c -1.56443,0 -1.91947,4.61566 -0.46679,6.06836 1.63713,1.6371 5.74073,1.00324 6.51172,-1.00586 0.4094,-1.0669 -0.18459,-3.26717 -1.32032,-4.88867 l -2.06445,-2.94727 0.20313,-13.66796 0.20117,-13.66602 11.39062,-11.55274 11.38868,-11.55273 h 21.78125 21.77929 l 8.31446,-8.40234 8.31445,-8.40235 h 27.7207 27.71875 l 2.59766,1.6211 c 3.1576,1.9719 7.16797,0.67233 7.16797,-2.32227 0,-2.05879 -1.89658,-3.31581 -4.10742,-3.25977 z m 241.32621,10.9629 -38.42,38.50976 -38.41988,38.50977 h -11.90234 -11.9043 l -17.87305,17.83398 -17.875,17.83399 v 27.3457 27.34571 l -16.45312,16.3457 c -9.0498,8.99 -19.89958,19.85092 -24.10938,24.13672 -4.2097,4.2857 -7.03756,7.79297 -6.28516,7.79297 0.7524,0 12.01806,-10.66512 25.03516,-23.69922 l 23.66797,-23.69727 -0.31445,-26.95703 -0.31446,-26.95703 17.92188,-17.96289 17.92187,-17.96094 h 11.93165 11.93359 l 37.79102,-37.81055 37.7891,-37.80859 h 16.082 16.0801 l 10.1855,10.11718 c 5.602,5.5646 10.1856,11.23642 10.1856,12.60352 0,1.3671 0.6302,2.48438 1.4004,2.48438 0.7702,0 1.4003,-1.45553 1.4003,-3.23633 v -3.23828 l -11.2851,-10.76563 -11.2852,-10.76562 h -16.4433 z m -238.04692,2.77343 -2.61523,1.91211 -2.61328,1.91016 0.88281,2.30273 c 1.1265,2.9356 6.39407,3.00311 7.50977,0.0957 0.4663,-1.215 -0.0551,-3.11175 -1.15821,-4.21485 z m -511.65626,13.38477 -2.13672,2.13672 -2.13867,2.13672 2.0293,2.73828 2.0293,2.73633 2.86718,-1.75 2.86719,-1.75196 h 12.28906 12.28907 l 20.9707,21.00586 20.9707,21.00586 h 13.30469 13.30664 l 22.77149,22.74024 c 12.52417,12.5069 22.77148,23.74435 22.77148,24.97265 0,1.2282 0.44038,2.67475 0.98047,3.21485 0.54008,0.5403 1.95949,0.79415 3.15234,0.56445 l 2.16797,-0.41797 v -3.46289 -3.46289 l -2.80078,-0.49023 c -1.54039,-0.2698 -8.31548,-5.9353 -15.05469,-12.5918 l -12.25195,-12.10352 v -14.75781 -14.75781 l -14.70312,-14.6543 c -8.08705,-8.0595 -14.70508,-15.68973 -14.70508,-16.95703 0,-1.2673 -0.83931,-3.00212 -1.86524,-3.85352 l -1.86523,-1.54687 -2.5625,1.87305 -2.56445,1.875 0.88476,2.30273 c 0.48607,1.2667 1.99465,2.30273 3.35352,2.30273 1.35886,0 8.94196,6.44928 16.84961,14.33008 l 14.37695,14.32813 v 13.28711 13.28906 l -8.76563,-8.6875 -8.76562,-8.6875 -13.56641,-0.28516 -13.5664,-0.2832 -21.41211,-21.44531 -21.41211,-21.44727 H 314.72266 302.4336 l -2.75976,-1.72265 z m 750.44928,7.88867 c -2.2109,-0.056 -4.1055,1.20098 -4.1055,3.25977 0,3.0029 4.0136,4.29189 7.1894,2.30859 l 2.6172,-1.63477 13.8145,0.14063 13.8164,0.14062 9.416,9.48829 9.416,9.49023 0.1602,25.95313 0.1582,25.95312 -1.711,2.0625 c -0.9415,1.1344 -1.3186,3.08695 -0.8378,4.33985 0.4808,1.2529 1.7513,2.27734 2.8242,2.27734 h 1.9511 v -30.49219 -30.49219 l -10.1855,-10.11718 -10.1855,-10.11915 h -14.3399 -14.3398 l -2.5957,-1.62109 c -0.9868,-0.61625 -2.0576,-0.91203 -3.0625,-0.9375 z m -116.73247,2.78711 c -1.84307,0.0173 -3.60351,1.59817 -3.60351,3.92969 0,1.5646 0.63019,2.84375 1.40039,2.84375 h 1.40039 v 15.08594 15.08398 l -11.70508,11.64453 -11.70703,11.64649 -21.20117,-0.4336 -21.20117,-0.43359 -8.79102,8.71289 -8.79102,8.71094 h -28.23633 -28.23632 l -0.86524,-1.40039 c -1.1396,-1.8439 -5.89192,-1.79724 -7.04492,0.0684 -0.4988,0.8071 -0.5542,2.3816 -0.125,3.5 0.8728,2.2744 6.46875,2.82181 6.46875,0.63281 v -1.40039 h 29.80078 29.80274 l 8.1875,-8.27344 8.18945,-8.27539 21.875,-0.17578 21.875,-0.17774 11.55274,-11.47265 11.55273,-11.47266 v -15.10351 -15.10352 l 1.71484,-2.74609 1.7168,-2.74805 -1.62109,-1.6211 c -0.71422,-0.71421 -1.57044,-1.02936 -2.40821,-1.02148 z m -305.67969,3.77344 -2.30078,2.30078 c -1.26532,1.2653 -2.30078,3.04934 -2.30078,3.96484 0,0.9155 -11.65764,13.30997 -25.90625,27.54297 l -25.90625,25.87891 v 23.30078 23.30078 l 6.30078,5.16407 c 3.46588,2.84 6.30273,6.27631 6.30273,7.63671 0,1.3605 0.44623,2.9209 0.99219,3.4668 0.54595,0.5455 2.27948,0.80899 3.85156,0.58399 l 2.85742,-0.41016 v -2.78125 -2.78125 l -2.80078,-0.53711 c -1.54039,-0.2951 -5.79274,-3.04106 -9.45117,-6.10156 l -6.65234,-5.56446 v -21.91015 -21.91211 l 26.24218,-26.26953 26.24415,-26.27149 h 2.50781 c 3.40562,0 4.68278,-3.93827 2.11133,-6.50977 z m 98.53516,0.98828 c -3.43957,0.15562 -5.60353,4.8789 -2.31055,6.91406 l 1.40039,0.86524 v 20.60742 20.60742 l -10.50195,10.43359 -10.50391,10.43165 v 18.31054 18.3086 l -1.58594,1.58593 c -0.87247,0.8724 -1.19095,2.61976 -0.70703,3.88086 l 0.88086,2.29102 3.04688,-0.44727 c 3.78842,-0.5573 4.71716,-2.99969 2.125,-5.59179 l -1.96875,-1.96875 -0.13867,-17.54102 -0.13672,-17.54101 10.44531,-10.37696 10.44531,-10.375 v -21.30859 -21.30664 l 1.40039,-0.86524 c 1.98639,-1.2276 1.73933,-5.95099 -0.34961,-6.67969 -0.53122,-0.1853 -1.04964,-0.2566 -1.54101,-0.23437 z m 328.2676,12.05664 c -1.005,0.0255 -2.0758,0.32128 -3.0625,0.9375 -1.4279,0.8918 -6.8643,1.62109 -12.082,1.62109 h -9.4864 l -23.7754,23.80665 -23.77536,23.80664 h -11.26172 -11.26367 l -8.00781,8.09179 -8.00781,8.0918 v 13.32227 13.32031 l 6.30078,6.18555 c 3.4659,3.4015 6.30273,7.20923 6.30273,8.46093 0,1.2517 0.42009,2.69549 0.93359,3.20899 1.7514,1.7514 5.76648,0.9375 6.64258,-1.3457 1.0475,-2.7299 -1.73373,-6.51547 -4.11523,-5.60157 -0.9305,0.357 -4.54179,-2.29337 -8.02539,-5.88867 l -6.33399,-6.53711 -0.23047,-11.7793 -0.23046,-11.77929 7.38281,-7.47461 7.38086,-7.47461 h 11.26562 11.26563 l 24.47661,-24.50782 24.4765,-24.50586 h 8.7871 c 4.8324,0 9.953,0.7294 11.3809,1.6211 3.1576,1.972 7.1699,0.67429 7.1699,-2.32031 0,-2.05879 -1.8965,-3.31578 -4.1074,-3.25977 z m -430.30276,20.76367 -10.10938,9.80274 c -5.56014,5.3914 -11.14186,9.80273 -12.40429,9.80273 -1.26243,0 -2.93374,1.19285 -3.71485,2.65235 l -1.41992,2.65429 1.89258,1.57227 c 2.43204,2.0184 6.44922,0.49604 6.44922,-2.44336 0,-1.2461 4.23785,-6.53385 9.41601,-11.75195 l 9.41407,-9.48829 h 9.12109 9.1211 l 17.87304,17.83399 c 9.8307,9.8089 17.87305,18.84166 17.87305,20.07226 0,1.2306 0.44819,2.68447 0.99414,3.23047 0.54595,0.5464 2.27752,0.80713 3.84961,0.58203 l 2.85937,-0.4082 v -2.80078 -2.80078 l -2.88281,-0.41211 c -1.58523,-0.2268 -11.34345,-8.89246 -21.68555,-19.25586 l -18.80468,-18.8418 h -8.91993 z m 415.38676,4.20117 -6.1836,6.30079 c -3.4015,3.4659 -7.2472,6.30273 -8.5449,6.30273 -2.7706,0 -4.7281,4.0923 -2.8536,5.9668 2.1785,2.1785 6.4714,0.48733 6.9317,-2.73047 0.2389,-1.6696 3.1899,-5.57654 6.5586,-8.68164 l 6.125,-5.64453 12.4648,0.0195 12.4649,0.0195 7.2324,7.44141 7.2324,7.4414 v 11.00781 11.00782 l 11.4805,11.53906 h 0 c 6.3136,6.3466 11.7946,11.22299 12.1797,10.83789 0.3851,-0.3851 -4.4658,-5.89178 -10.7793,-12.23828 l -11.4785,-11.53906 -0.012,-11.17383 -0.01,-11.17383 -7.5644,-7.35156 -7.5645,-7.35157 h -13.8418 z m -710.70903,1.54102 c -1.08088,-0.0352 -2.10813,0.37667 -2.70703,1.3457 -1.52344,2.465 -0.0821,5.51563 2.60546,5.51563 1.23898,0 5.19877,2.90136 8.79883,6.44726 l 6.54492,6.44727 19.42969,-0.15625 19.42969,-0.15625 11.85156,11.91406 11.85157,11.91211 H 369.5879 335.24024 l -1.58594,-1.58594 c -2.26946,-2.2694 -5.97656,-0.41747 -5.97656,2.98633 0,3.4037 3.7071,5.25583 5.97656,2.98633 l 1.58594,-1.58594 h 35.81641 35.81641 l 9.72656,9.80274 9.72852,9.80273 h 9.11132 9.11328 l 12.2793,12.22461 c 6.75444,6.7232 12.28125,13.23315 12.28125,14.46875 0,1.2355 0.42013,2.66814 0.9336,3.18164 1.21632,1.2163 2.15474,1.15116 4.45507,-0.30664 2.7323,-1.7315 1.3813,-6.39185 -1.99414,-6.87695 -1.58342,-0.2275 -8.49652,-6.05633 -15.36132,-12.95313 l -12.48047,-12.53906 h -9.14844 -9.14844 l -22.37109,-22.40625 -22.37305,-22.4043 h -19.67969 -19.68164 l -5.76367,-5.95312 c -3.17003,-3.2733 -5.98531,-7.20288 -6.25781,-8.73438 -0.35933,-2.01956 -2.30987,-3.31833 -4.11133,-3.37695 z M 782.6133,631.9922 c -1.49405,-0.0205 -2.98613,0.65959 -3.52148,2.05469 -0.4471,1.1651 -0.0467,3.04258 0.89062,4.17188 l 1.70508,2.05468 2.65234,-1.42187 c 2.9709,-1.5899 2.98649,-1.62723 1.80469,-4.70703 -0.54105,-1.41005 -2.0372,-2.13184 -3.53125,-2.15235 z m -194.43946,11.91407 c -1.1178,-0.0407 -2.57018,0.56627 -3.55664,1.55273 l -2.20703,2.20703 2.16602,2.39453 2.16796,2.39453 v 10.45703 10.45899 l 5.41602,5.28906 5.41602,5.28906 25.52148,-0.10156 25.52149,-0.10156 6.52148,5.58984 6.52148,5.58985 5.53516,0.01 5.53516,0.01 4.61719,-4.47656 4.61718,-4.47461 v -8.12891 -8.12695 h 1.49805 c 0.82377,0 1.2969,-1.41739 1.05078,-3.15039 l -0.44726,-3.15039 h -2.80079 -2.80078 l -0.44726,3.15039 c -0.24612,1.733 0.22701,3.15039 1.05078,3.15039 h 1.49609 v 7.28515 7.28516 l -4.47461,4.61914 -4.47656,4.61719 h -5.04297 -5.04101 l -5.47071,-5.60156 -5.46875,-5.60157 h -25.91406 -25.91406 l -5.3086,-5.18554 -5.31054,-5.18555 v -10.13477 c 0,-5.5747 0.63019,-10.52595 1.40039,-11.00195 2.12081,-1.3107 1.67497,-5.89697 -0.66016,-6.79297 -0.21244,-0.0815 -0.45298,-0.12537 -0.71094,-0.13476 z m 306.78907,1.5664 -2.17187,1.80274 c -1.194,0.9909 -2.18232,2.82647 -2.19532,4.08007 -0.0133,1.2535 -4.6534,6.90992 -10.3125,12.57032 l -10.28906,10.29297 0.66016,18.93164 0.66015,18.93359 -10.26757,10.33594 c -5.6466,5.6845 -11.30728,10.33398 -12.58008,10.33398 -1.2728,0 -3.0998,0.94627 -4.0586,2.10157 l -1.74218,2.09961 1.79296,2.1621 c 2.3998,2.8916 6.15172,2.00549 6.66602,-1.57421 0.228,-1.587 5.11252,-7.55121 10.85352,-13.25391 l 10.4375,-10.36914 v -19.67578 -19.67383 l 10.18554,-10.11719 c 5.6021,-5.5646 11.29259,-10.11914 12.64649,-10.11914 3.4399,0 4.59914,-3.97507 1.93554,-6.63867 z m 124.90629,5.02344 c -1.7192,0.0904 -3.2168,1.19514 -3.2168,2.92383 0,1.0852 0.9722,2.77972 2.1601,3.76562 l 2.1602,1.79102 1.6211,-1.6211 1.6211,-1.62109 h 14.0195 14.0215 l 6.0039,5.89453 6.0039,5.89258 v 26.23242 26.23243 l -1.4004,0.86523 c -1.9864,1.2276 -1.7374,5.95099 0.3516,6.67969 4.2497,1.4824 7.613,-4.35379 3.8496,-6.67969 l -1.4004,-0.86523 v -26.9336 -26.93164 l -5.9649,-5.85547 -5.9648,-5.85352 -14.3848,-0.60546 -14.3847,-0.60352 -2.0371,-1.69141 c -0.9148,-0.75918 -2.0271,-1.06986 -3.0586,-1.01562 z m -21.86527,4.15234 c -1.1347,0.0386 -2.49443,0.62326 -3.42188,1.55078 l -2.24804,2.25 2.35742,2.60352 2.35547,2.60547 v 7.97851 7.98047 l -14.00196,13.57227 -14.0039,13.57227 v 27.70117 27.69922 h 1.27734 1.27735 l -0.42188,-26.95703 -0.42187,-26.95704 13.84765,-13.51757 13.84766,-13.51954 v -9.15429 c 0,-5.035 0.63019,-9.54354 1.40039,-10.01954 2.19262,-1.3552 1.64052,-6.29848 -0.80859,-7.23828 -0.30375,-0.11655 -0.65693,-0.16324 -1.03516,-0.15039 z m -273.45313,9.46094 -2.6582,1.94531 -2.66016,1.94336 2.37305,3.6211 2.37304,3.62304 v 22.85743 22.85742 l -7.00195,6.89648 -7.00195,6.89649 v 13.70508 13.70703 h 1.40039 1.40039 V 748.44924 734.7383 l 6.30078,-6.18555 6.30273,-6.18359 v -24.23438 -24.23242 l 1.72266,-2.75977 1.72266,-2.75976 -2.13672,-2.13672 z m -268.11134,3.05664 c -2.84469,-0.0507 -4.40915,2.65758 -2.81054,5.24414 0.58349,0.9441 2.05186,1.86156 3.26172,2.03906 1.20986,0.1776 8.23554,5.93779 15.61328,12.80079 l 13.41406,12.47851 v 14.85938 14.85937 l -12.25391,12.02539 c -6.73921,6.6144 -14.10309,13.97523 -16.36523,16.35743 -2.26213,2.3823 -3.51308,4.33203 -2.7793,4.33203 0.73379,0 8.72982,-7.41321 17.76758,-16.47461 l 16.43164,-16.47657 v -14.64648 -14.64648 l -13.92383,-13.33985 c -7.6577,-7.3366 -14.12252,-14.59827 -14.36718,-16.13867 l -0.44532,-2.80078 -2.95703,-0.42383 c -0.20048,-0.0287 -0.39629,-0.0455 -0.58594,-0.0488 z m 562.51564,2.46875 -2.1406,2.14258 -2.1426,2.14258 1.6914,1.68945 1.6895,1.69141 v 17.62695 17.62695 l 7.1601,6.94922 c 3.9376,3.822 8.0582,9.0383 9.1582,11.5918 l 2,4.64258 2.3945,-0.45508 c 1.3165,-0.2508 2.5868,-1.81376 2.8243,-3.47266 l 0.4316,-3.01562 -3.2324,-0.96875 c -1.7779,-0.5324 -6.5405,-4.1889 -10.584,-8.125 l -7.3516,-7.15625 V 695.4258 678.30666 l 1.4004,-0.86524 c 2.2402,-1.3845 1.6166,-5.91979 -0.9492,-6.90429 z m -167.53125,2.70899 -3.14258,0.44726 -3.14453,0.44922 -0.49024,2.80078 c -0.27,1.5404 -3.72036,6.10885 -7.66796,10.15235 l -7.17774,7.35156 h -17.11914 -17.11914 l -0.86719,-1.40039 c -1.1395,-1.844 -5.88997,-1.7993 -7.04297,0.0664 -0.4988,0.807 -0.55615,2.38356 -0.12695,3.50196 0.8866,2.3105 5.86172,2.74951 7.16992,0.63281 l 0.86719,-1.40039 h 17.81836 17.82031 l 7.49219,-7.58594 c 4.1204,-4.1723 8.25099,-7.2938 9.17969,-6.9375 2.3583,0.905 5.42789,-3.18568 4.40039,-5.86328 z m -454.42775,5.62695 -29.4082,0.76367 c -16.1741,0.4193 -38.22898,0.78164 -49.01172,0.80664 l -19.60547,0.0449 -12.4668,11.88086 -12.46679,11.88086 H 252.12501 230.2129 l -1.58594,-1.58593 c -2.26947,-2.2694 -5.97656,-0.41748 -5.97656,2.98632 0,3.4038 3.70709,5.25583 5.97656,2.98633 l 1.58594,-1.58594 h 21.98242 21.98047 l 12.96875,-12.60351 12.96875,-12.60352 h 30.91211 30.91406 l 14.37696,14.32813 14.37695,14.33008 v 19.58007 19.58204 l 6.56836,6.66797 c 3.612,3.6671 6.88248,6.35189 7.26758,5.96679 0.3851,-0.3851 -2.2552,-3.70009 -5.86719,-7.36719 l -6.56836,-6.66796 V 727.8301 708.29884 l -13.62695,-13.67968 -13.62696,-13.67774 h 16.09375 16.09375 l 11.71485,10.7793 11.71289,10.77734 -0.83985,8.98633 -0.83984,8.98828 8.21484,8.5918 c 4.51765,4.7254 8.44532,9.85218 8.72852,11.39258 l 0.51563,2.80078 3.14257,0.44727 3.14258,0.44921 0.84961,-2.21679 c 1.02689,-2.6761 -2.04037,-6.76738 -4.39648,-5.86328 -0.92715,0.3558 -5.23731,-2.94163 -9.57813,-7.32813 l -7.89258,-7.97656 v -9.98047 -9.97852 l -12.2539,-11.41992 z m 367.59181,12.77344 c -3.40375,0 -5.25579,3.70511 -2.98633,5.97461 l 1.58594,1.58789 -0.008,9.17187 -0.01,9.17188 -13.64453,13.60547 -13.64453,13.60547 0.69336,9.5 0.6914,9.5 0.41602,-9.18555 0.41601,-9.18555 13.94532,-13.89453 13.94531,-13.89258 v -9.19922 -9.19726 l 1.58594,-1.58789 c 2.26943,-2.2695 0.41743,-5.97461 -2.98633,-5.97461 z m -152.75977,2.93164 c -1.08369,-0.0439 -2.12258,0.36873 -2.73242,1.35547 -1.53878,2.4898 -0.0713,5.51562 2.67383,5.51562 1.27614,0 10.80931,8.5067 21.18554,18.9043 l 18.86524,18.9043 h 14.75976 14.75782 l 10.43164,-10.50196 c 5.73791,-5.7765 11.4998,-10.50195 12.80273,-10.50195 1.30294,0 2.6427,-0.78915 2.97852,-1.75195 1.07679,-3.0869 -0.5828,-5.25 -4.02735,-5.25 h -3.35156 v 3.26367 3.26367 l -10.15234,9.80273 -10.15235,9.80079 -13.79882,-0.27735 -13.79883,-0.27929 -17.99805,-17.95704 c -9.89815,-9.8762 -18.18138,-19.24632 -18.4082,-20.82422 -0.29527,-2.05393 -2.22901,-3.39354 -4.03516,-3.46679 z m -94.40235,15.97265 v 3.50196 3.5 l 2.44532,0.0137 c 1.34472,0.008 10.48157,7.98576 20.30468,17.72656 l 17.86133,17.71094 8.5,-0.53711 8.50196,-0.53711 5.43554,5.56641 v 0.002 c 2.9901,3.0621 5.93885,5.56641 6.55274,5.56641 2.3392,0 0.9256,-2.40411 -4.35938,-7.41211 l -5.47851,-5.19141 h -9.59766 -9.59766 l -17.01367,-17.1543 c -9.35799,-9.4349 -17.23546,-18.41467 -17.50391,-19.95507 l -0.48828,-2.80079 h -2.78125 z m 32.20899,1.40039 -0.42774,2.98829 -0.42578,2.98632 3.92774,1.37891 c 2.15982,0.7587 7.99859,5.55822 12.97461,10.66602 l 9.04687,9.28711 h 15.50196 15.50195 l 11.69727,11.94922 c 6.43391,6.5715 12.02251,11.62401 12.41796,11.22851 0.39545,-0.3954 -4.53321,-6.08724 -10.95312,-12.64844 L 607.22267,736.9551 h -15.24414 -15.24609 l -8.02735,-7.65821 c -4.41568,-4.2118 -9.28464,-10.04072 -10.81836,-12.95312 l -2.78711,-5.29493 h -2.73242 z m 407.69337,13.34766 c -1.24786,0.0467 -2.45507,0.48642 -2.99219,1.35547 l -0.86523,1.40039 h -14.9375 -14.93946 l -10.18555,10.11914 -10.18359,10.11719 v 7.38672 7.38672 h 1.42578 1.42578 l -0.25195,-7.08985 -0.25,-7.08984 9.64063,-9.71484 9.63867,-9.71485 h 14.30859 14.3086 l 0.86523,1.40039 c 2.3259,3.7634 8.16209,0.40019 6.67969,-3.84961 -0.4099,-1.175 -2.08312,-1.76711 -3.6875,-1.70703 z m -453.99415,6.95703 -8.00782,8.09375 -8.00781,8.0918 v 7.3125 7.31055 h 1.40039 1.40039 v -7.3086 -7.30664 l 7.30469,-7.39648 7.30273,-7.39649 h 4.98633 4.98828 l 9.67383,9.75 c 5.3213,5.3624 9.82899,10.80104 10.01758,12.08594 0.507,3.4545 2.55685,4.98415 5.2793,3.93945 l 2.4082,-0.92578 -0.42383,-2.9707 -0.42383,-2.97266 -2.90234,-0.41601 c -1.59646,-0.2282 -7.25177,-4.79665 -12.56641,-10.15235 l -9.66211,-9.73828 h -6.38476 z m -207.64845,0.77149 c -1.63191,0.12693 -3.01757,1.489 -3.01757,3.625 0,3.2448 3.76524,5.00427 5.97656,2.79297 l 1.58594,-1.58789 h 26.70703 26.70508 l 12.54492,12.60351 c 6.89964,6.9317 13.18352,12.60352 13.96484,12.60352 0.78131,0 -4.56112,-5.97901 -11.87304,-13.28711 l -13.29493,-13.28907 -27.24218,-0.20117 -27.24219,-0.20117 -1.85547,-1.85547 c -0.91215,-0.91215 -1.97984,-1.27929 -2.95899,-1.20312 z m 468.90236,7.03125 -2.39063,2.39062 -2.39062,2.39063 1.6914,1.68945 c 0.92974,0.9297 1.68946,5.03118 1.68946,9.11328 v 7.42188 h 1.40039 c 0.7702,0 1.40039,-2.84402 1.40039,-6.32032 0,-3.4764 0.77692,-7.56257 1.72461,-9.08007 l 1.72265,-2.75977 -2.42382,-2.42187 z m -253.43555,16.77539 c -2.43077,-0.0782 -5.93824,3.19774 -4.85938,4.94336 0.43763,0.7081 2.33285,1.28711 4.21289,1.28711 h 3.41992 v -2.65039 c 0,-1.458 -0.92753,-3.00661 -2.06054,-3.44141 -0.22217,-0.0853 -0.46144,-0.13058 -0.71289,-0.13867 z" /></g></svg>
